<svg xmlns="http://www.w3.org/2000/svg" xmlns:xlink="http://www.w3.org/1999/xlink"><defs><symbol fill="none" viewBox="0 0 121 24" id="appgallery"><path d="M11.432 13.905h-.936l.468-1.07.468 1.07Z" fill="#fff"/><path fill-rule="evenodd" clip-rule="evenodd" d="M17.248 0H6.752C1.805 0 0 1.805 0 6.752v10.496C0 22.195 1.805 24 6.752 24h10.496C22.195 24 24 22.195 24 17.248V6.752C24 1.805 22.195 0 17.248 0ZM5.415 15.175h-.668v-1.27H3.343v1.27h-.669v-3.142h.602v1.27h1.47v-1.27h.669v3.143Zm2.206 0c.87 0 1.337-.468 1.337-1.403v-1.805h-.601v1.805c0 .534-.268.802-.736.802-.468 0-.735-.268-.735-.802v-1.805h-.602v1.805c0 .869.468 1.403 1.337 1.403Zm.401-11.164h.602a3.424 3.424 0 0 0 3.41 3.41 3.424 3.424 0 0 0 3.409-3.41h.535a4.023 4.023 0 0 1-4.011 4.011c-2.14 0-3.945-1.805-3.945-4.01ZM11.7 14.507l.268.668h.735l-1.404-3.142h-.535L9.36 15.176h.669l.267-.669H11.7Zm4.279.668h-.535l-.736-2.072-.735 2.072h-.535l-1.07-3.142h.67l.668 2.14.735-2.14h.535l.735 2.14.669-2.14h.668l-1.07 3.143Zm1.604 0h2.407v-.601H18.25v-.802h1.136v-.535h-1.136v-.669h1.671v-.535h-2.34v3.143Zm3.744 0h-.602v-3.142h.602v3.143Z" fill="#fff"/><path d="M36.815 18h2.11l.937-2.914h4.172L44.979 18h2.11l-4-11.273h-2.274l-4 11.273Zm5.07-9.18h.133l1.516 4.711H40.37l1.515-4.71Zm6.618 12.016h1.945V16.64h.133c.445.922 1.422 1.5 2.594 1.5 2.164 0 3.508-1.68 3.508-4.399v-.015c0-2.704-1.368-4.407-3.508-4.407-1.196 0-2.125.547-2.594 1.477h-.133V9.46h-1.945v11.375Zm4.062-4.336c-1.32 0-2.14-1.055-2.14-2.766v-.015c0-1.711.82-2.758 2.14-2.758 1.328 0 2.133 1.047 2.133 2.766v.015c0 1.711-.805 2.758-2.133 2.758Zm5.758 4.336h1.946V16.64h.133c.445.922 1.421 1.5 2.593 1.5 2.164 0 3.508-1.68 3.508-4.399v-.015c0-2.704-1.367-4.407-3.508-4.407-1.195 0-2.125.547-2.593 1.477h-.133V9.46h-1.946v11.375Zm4.063-4.336c-1.32 0-2.14-1.055-2.14-2.766v-.015c0-1.711.82-2.758 2.14-2.758 1.328 0 2.133 1.047 2.133 2.766v.015c0 1.711-.805 2.758-2.133 2.758Zm10.782 1.781c3.007 0 4.93-1.867 4.93-4.781v-1.406h-4.68v1.539h2.703l-.008.234c-.024 1.602-1.195 2.672-2.914 2.672-2.008 0-3.274-1.602-3.274-4.187v-.016c0-2.547 1.243-4.149 3.211-4.149 1.446 0 2.477.72 2.844 1.954l.023.078h2l-.007-.078c-.383-2.204-2.258-3.696-4.86-3.696-3.21 0-5.265 2.305-5.265 5.907v.015c0 3.64 2.03 5.914 5.297 5.914Zm9.031-.14c1.125 0 2.031-.485 2.5-1.313h.133V18h1.922v-5.836c0-1.805-1.235-2.867-3.43-2.867-2.031 0-3.406.953-3.594 2.39l-.008.07h1.836l.008-.03c.196-.563.774-.883 1.664-.883 1.047 0 1.602.469 1.602 1.32v.734l-2.195.133c-2.079.125-3.243 1.016-3.243 2.54v.015c0 1.555 1.18 2.555 2.805 2.555Zm-.883-2.649v-.015c0-.704.508-1.102 1.594-1.172l1.922-.125v.687c0 1.016-.867 1.781-2.04 1.781-.859 0-1.476-.43-1.476-1.156ZM88.848 18h1.945V6.156h-1.945V18Zm4.164 0h1.945V6.156h-1.945V18Zm7.743.172c2.32 0 3.461-1.336 3.734-2.438l.023-.07h-1.851l-.024.055c-.187.39-.789.922-1.843.922-1.32 0-2.149-.891-2.172-2.422h5.969v-.64c0-2.579-1.5-4.282-3.93-4.282s-3.984 1.758-3.984 4.445v.008c0 2.719 1.539 4.422 4.078 4.422Zm-.071-7.352c1.086 0 1.875.696 2.008 2.094h-4.054c.148-1.36.96-2.094 2.046-2.094Zm5.532 7.18h1.945v-4.96c0-1.22.852-1.993 2.149-1.993a4.9 4.9 0 0 1 .968.11V9.413a3.111 3.111 0 0 0-.789-.094c-1.125 0-1.906.54-2.195 1.453h-.133V9.461h-1.945V18Zm7.375 3c1.891 0 2.867-.68 3.602-2.82l3.062-8.72h-2.047l-1.984 6.673h-.148l-1.993-6.672h-2.125l3.055 8.547-.101.39c-.211.774-.688 1.102-1.485 1.102-.203 0-.422-.008-.578-.023v1.492c.234.023.508.031.742.031Z" fill="#fff"/></symbol><symbol fill="none" viewBox="0 0 109 24" id="appstore"><path d="M15.733 0c.116 1.394-.364 2.776-1.337 3.85-.945 1.08-2.377 1.702-3.884 1.688-.096-1.354.398-2.688 1.372-3.707C12.871.797 14.245.144 15.733 0Z" fill="#fff"/><path d="M20.333 7.97c-1.713.992-2.767 2.743-2.793 4.638.002 2.145 1.365 4.08 3.46 4.916a11.975 11.975 0 0 1-1.8 3.455c-1.06 1.495-2.171 2.955-3.936 2.982-.839.018-1.405-.209-1.995-.446-.616-.247-1.257-.505-2.261-.505-1.065 0-1.735.266-2.381.523-.56.221-1.1.436-1.862.465-1.68.06-2.964-1.595-4.063-3.076C.506 17.898-1.204 12.4 1.09 8.66 2.165 6.835 4.178 5.678 6.39 5.61c.953-.019 1.868.327 2.67.63.613.233 1.16.44 1.608.44.394 0 .926-.199 1.545-.43.977-.366 2.172-.813 3.39-.692 1.891.055 3.644.949 4.73 2.41ZM33.655 18h2.11l.937-2.914h4.172L41.819 18h2.11l-4-11.273h-2.274l-4 11.273Zm5.07-9.18h.133l1.516 4.711H37.21l1.515-4.71Zm6.618 12.016h1.945V16.64h.133c.445.922 1.422 1.5 2.594 1.5 2.164 0 3.508-1.68 3.508-4.399v-.015c0-2.704-1.368-4.407-3.508-4.407-1.196 0-2.125.547-2.594 1.477h-.133V9.46h-1.945v11.375Zm4.062-4.336c-1.32 0-2.14-1.055-2.14-2.766v-.015c0-1.711.82-2.758 2.14-2.758 1.328 0 2.133 1.047 2.133 2.766v.015c0 1.711-.805 2.758-2.133 2.758Zm5.758 4.336h1.946V16.64h.133c.445.922 1.421 1.5 2.593 1.5 2.164 0 3.508-1.68 3.508-4.399v-.015c0-2.704-1.367-4.407-3.508-4.407-1.195 0-2.125.547-2.593 1.477h-.133V9.46h-1.946v11.375Zm4.063-4.336c-1.32 0-2.14-1.055-2.14-2.766v-.015c0-1.711.82-2.758 2.14-2.758 1.328 0 2.133 1.047 2.133 2.766v.015c0 1.711-.805 2.758-2.133 2.758Zm13.82 1.781c2.704 0 4.4-1.375 4.4-3.57v-.008c0-1.703-.993-2.656-3.368-3.156l-1.21-.258c-1.407-.297-1.977-.797-1.977-1.594v-.008c0-.96.89-1.546 2.14-1.546 1.29-.008 2.125.617 2.266 1.492l.016.094h1.93l-.009-.102c-.14-1.813-1.695-3.18-4.195-3.18-2.437 0-4.172 1.36-4.172 3.375v.008c0 1.68 1 2.758 3.305 3.242l1.21.25c1.454.313 2.04.805 2.04 1.617v.008c0 .97-.953 1.64-2.313 1.64-1.43 0-2.437-.624-2.53-1.57l-.009-.078h-1.953l.008.11c.14 1.945 1.805 3.234 4.422 3.234Zm9.501-.242c.375 0 .735-.031 1.016-.086v-1.5a5.673 5.673 0 0 1-.656.031c-.813 0-1.149-.359-1.149-1.21v-4.305h1.805V9.46h-1.805V7.367h-1.976v2.094h-1.329v1.508h1.329v4.765c0 1.649.804 2.305 2.765 2.305Zm6.243.133c2.554 0 4.11-1.672 4.11-4.438v-.015c0-2.75-1.563-4.422-4.11-4.422-2.54 0-4.11 1.68-4.11 4.422v.015c0 2.766 1.547 4.438 4.11 4.438Zm0-1.578c-1.352 0-2.125-1.055-2.125-2.852v-.015c0-1.797.773-2.86 2.125-2.86 1.343 0 2.117 1.063 2.117 2.86v.015c0 1.797-.766 2.852-2.117 2.852ZM94.532 18h1.946v-4.96c0-1.22.851-1.993 2.148-1.993.336 0 .656.047.969.11V9.413a3.116 3.116 0 0 0-.79-.094c-1.124 0-1.906.54-2.195 1.453h-.132V9.461h-1.946V18Zm9.774.172c2.32 0 3.461-1.336 3.734-2.438l.024-.07h-1.852l-.023.055c-.188.39-.789.922-1.844.922-1.32 0-2.148-.891-2.172-2.422h5.969v-.64c0-2.579-1.5-4.282-3.93-4.282-2.429 0-3.984 1.758-3.984 4.445v.008c0 2.719 1.539 4.422 4.078 4.422Zm-.07-7.352c1.086 0 1.875.696 2.007 2.094h-4.054c.148-1.36.961-2.094 2.047-2.094Z" fill="#fff"/></symbol><symbol fill="none" viewBox="0 0 24 238" id="arrow"><path d="M13.484 1.996a1.5 1.5 0 0 0-3 0h3Zm-2.56 235.069a1.5 1.5 0 0 0 2.121 0l9.546-9.546a1.5 1.5 0 1 0-2.121-2.121l-8.486 8.485-8.485-8.485a1.5 1.5 0 1 0-2.121 2.121l9.546 9.546Zm-.44-235.069v234.009h3V1.996h-3Z" fill="url(#arrow_a)"/><defs/></symbol><linearGradient id="arrow_a" x1="11.996" y1="296.5" x2="11.997" y2="2" gradientUnits="userSpaceOnUse"><stop offset=".575" stop-color="#fff"/><stop offset=".995" stop-color="#fff" stop-opacity="0"/></linearGradient><symbol viewBox="0 0 28 16" fill="none" id="arrow-mobile"><path d="M26 2 14.675 13.294a1 1 0 0 1-1.415-.002L2 2" stroke="#fff" stroke-width="3" stroke-linecap="round"/></symbol><symbol fill="none" viewBox="0 0 131 24" id="galaxystore"><path fill-rule="evenodd" clip-rule="evenodd" d="M4.78 6.568v-.26c0-1.674.642-3.278 1.786-4.46A5.996 5.996 0 0 1 10.877 0c1.617 0 3.168.665 4.312 1.847a6.419 6.419 0 0 1 1.786 4.46v.26H22L20.756 19.25a5.349 5.349 0 0 1-1.657 3.387A5.014 5.014 0 0 1 15.674 24H6.326a5.014 5.014 0 0 1-3.425-1.364 5.35 5.35 0 0 1-1.657-3.387L0 6.57l4.78-.001Zm3.252-3.204a3.957 3.957 0 0 1 2.845-1.219c1.067 0 2.09.439 2.845 1.22a4.236 4.236 0 0 1 1.179 2.942v.26H6.854v-.26c0-1.104.424-2.162 1.178-2.943Z" fill="#fff"/><path d="M40.526 18.281c3.007 0 4.93-1.867 4.93-4.781v-1.406h-4.68v1.539h2.703l-.008.234c-.023 1.602-1.195 2.672-2.914 2.672-2.008 0-3.274-1.602-3.274-4.187v-.016c0-2.547 1.243-4.149 3.211-4.149 1.446 0 2.477.72 2.844 1.954l.024.078h2l-.008-.078c-.383-2.204-2.258-3.696-4.86-3.696-3.21 0-5.265 2.305-5.265 5.907v.015c0 3.64 2.031 5.914 5.297 5.914Zm9.031-.14c1.125 0 2.031-.485 2.5-1.313h.133V18h1.922v-5.836c0-1.805-1.235-2.867-3.43-2.867-2.031 0-3.406.953-3.594 2.39l-.007.07h1.836l.007-.03c.196-.563.774-.883 1.664-.883 1.047 0 1.602.469 1.602 1.32v.734l-2.195.133c-2.078.125-3.242 1.016-3.242 2.54v.015c0 1.555 1.18 2.555 2.804 2.555Zm-.883-2.649v-.015c0-.704.508-1.102 1.594-1.172l1.922-.125v.687c0 1.016-.867 1.781-2.04 1.781-.858 0-1.476-.43-1.476-1.156ZM56.206 18h1.945V6.156h-1.945V18Zm6.414.14c1.125 0 2.032-.484 2.5-1.312h.133V18h1.922v-5.836c0-1.805-1.234-2.867-3.43-2.867-2.03 0-3.406.953-3.593 2.39l-.008.07h1.836l.008-.03c.195-.563.773-.883 1.664-.883 1.046 0 1.601.469 1.601 1.32v.734l-2.195.133c-2.078.125-3.242 1.016-3.242 2.54v.015c0 1.555 1.18 2.555 2.804 2.555Zm-.883-2.648v-.015c0-.704.508-1.102 1.594-1.172l1.922-.125v.687c0 1.016-.867 1.781-2.039 1.781-.86 0-1.477-.43-1.477-1.156ZM68.543 18h2.093l1.742-2.969h.133L74.261 18h2.188l-2.79-4.32 2.758-4.22h-2.132l-1.688 2.962h-.133L70.77 9.46h-2.25l2.79 4.305L68.542 18Zm10.21 3c1.891 0 2.868-.68 3.602-2.82l3.063-8.72H83.37l-1.984 6.673h-.149L79.246 9.46H77.12l3.055 8.547-.102.39c-.21.774-.687 1.102-1.484 1.102-.203 0-.422-.008-.578-.023v1.492c.234.023.507.031.742.031Zm16.08-2.719c2.703 0 4.398-1.375 4.398-3.57v-.008c0-1.703-.992-2.656-3.367-3.156l-1.211-.258c-1.406-.297-1.977-.797-1.977-1.594v-.008c0-.96.89-1.546 2.14-1.546 1.29-.008 2.126.617 2.266 1.492l.016.094h1.93l-.008-.102c-.14-1.813-1.695-3.18-4.195-3.18-2.438 0-4.172 1.36-4.172 3.375v.008c0 1.68 1 2.758 3.304 3.242l1.211.25c1.454.313 2.04.805 2.04 1.617v.008c0 .97-.954 1.64-2.313 1.64-1.43 0-2.438-.624-2.531-1.57l-.008-.078h-1.953l.008.11c.14 1.945 1.804 3.234 4.421 3.234Zm9.5-.242c.375 0 .734-.031 1.015-.086v-1.5a5.658 5.658 0 0 1-.656.031c-.812 0-1.148-.359-1.148-1.21v-4.305h1.804V9.46h-1.804V7.367h-1.977v2.094h-1.328v1.508h1.328v4.765c0 1.649.805 2.305 2.766 2.305Zm6.242.133c2.555 0 4.11-1.672 4.11-4.438v-.015c0-2.75-1.563-4.422-4.11-4.422-2.539 0-4.109 1.68-4.109 4.422v.015c0 2.766 1.547 4.438 4.109 4.438Zm0-1.578c-1.351 0-2.125-1.055-2.125-2.852v-.015c0-1.797.774-2.86 2.125-2.86 1.344 0 2.118 1.063 2.118 2.86v.015c0 1.797-.766 2.852-2.118 2.852ZM116.318 18h1.945v-4.96c0-1.22.852-1.993 2.149-1.993.335 0 .656.047.968.11V9.413a3.111 3.111 0 0 0-.789-.094c-1.125 0-1.906.54-2.195 1.453h-.133V9.461h-1.945V18Zm9.774.172c2.32 0 3.461-1.336 3.734-2.438l.023-.07h-1.851l-.024.055c-.187.39-.789.922-1.843.922-1.321 0-2.149-.891-2.172-2.422h5.969v-.64c0-2.579-1.5-4.282-3.93-4.282s-3.985 1.758-3.985 4.445v.008c0 2.719 1.54 4.422 4.079 4.422Zm-.071-7.352c1.086 0 1.875.696 2.008 2.094h-4.055c.149-1.36.961-2.094 2.047-2.094Z" fill="#fff"/></symbol><symbol fill="none" viewBox="0 0 122 24" id="googleplay"><path d="m11.545 12.893 2.996 3.237-12.295 7.64c-.365.175-.692.247-.98.227l10.279-11.104ZM.218.661l10.716 11.573L.429 23.579l-.072-.085c-.193-.253-.325-.62-.352-1.052L0 22.277V1.657C0 1.27.082.927.218.66Zm15.355 7.882 3.52 2.164c.482.297.744.654.83 1.023.227.619-.05 1.294-.83 1.776l-3.74 2.18-3.197-3.452 3.417-3.69ZM1.997.213l.124.064.125.073 12.555 7.708-3.256 3.517L.877.053c.315-.106.688-.052 1.12.16ZM38.233 18.281c3.008 0 4.93-1.867 4.93-4.781v-1.406h-4.68v1.539h2.703l-.008.234c-.023 1.602-1.195 2.672-2.914 2.672-2.008 0-3.273-1.602-3.273-4.187v-.016c0-2.547 1.242-4.149 3.21-4.149 1.446 0 2.477.72 2.844 1.954l.024.078h2l-.008-.078c-.383-2.204-2.258-3.696-4.86-3.696-3.21 0-5.265 2.305-5.265 5.907v.015c0 3.64 2.031 5.914 5.297 5.914Zm10.438-.11c2.554 0 4.109-1.671 4.109-4.437v-.015c0-2.75-1.563-4.422-4.11-4.422-2.538 0-4.109 1.68-4.109 4.422v.015c0 2.766 1.547 4.438 4.11 4.438Zm0-1.577c-1.352 0-2.125-1.055-2.125-2.852v-.015c0-1.797.773-2.86 2.125-2.86 1.343 0 2.117 1.063 2.117 2.86v.015c0 1.797-.766 2.852-2.117 2.852Zm9.43 1.578c2.554 0 4.109-1.672 4.109-4.438v-.015c0-2.75-1.563-4.422-4.11-4.422-2.538 0-4.109 1.68-4.109 4.422v.015c0 2.766 1.547 4.438 4.11 4.438Zm0-1.578c-1.352 0-2.125-1.055-2.125-2.852v-.015c0-1.797.773-2.86 2.125-2.86 1.343 0 2.117 1.063 2.117 2.86v.015c0 1.797-.766 2.852-2.117 2.852ZM67.515 21c2.492 0 4.07-1.242 4.07-3.21V9.46H69.64v1.407h-.102c-.484-.969-1.406-1.547-2.585-1.547-2.204 0-3.547 1.703-3.547 4.172v.016c0 2.422 1.343 4.094 3.507 4.094 1.18 0 2.11-.5 2.602-1.415h.133v1.633c0 1.094-.774 1.711-2.102 1.711-1.086 0-1.734-.383-1.867-.93l-.008-.023h-1.945l-.008.024C63.913 20.039 65.265 21 67.515 21Zm0-4.945c-1.352 0-2.117-1.04-2.117-2.547v-.016c0-1.508.765-2.555 2.117-2.555 1.344 0 2.164 1.047 2.164 2.555v.016c0 1.508-.812 2.547-2.164 2.547ZM73.726 18h1.946V6.156h-1.946V18Zm7.743.172c2.32 0 3.46-1.336 3.734-2.438l.024-.07h-1.852l-.023.055c-.188.39-.79.922-1.844.922-1.32 0-2.149-.891-2.172-2.422h5.969v-.64c0-2.579-1.5-4.282-3.93-4.282s-3.984 1.758-3.984 4.445v.008c0 2.719 1.539 4.422 4.078 4.422Zm-.07-7.352c1.085 0 1.874.696 2.007 2.094h-4.054c.148-1.36.96-2.094 2.046-2.094Zm9.68 7.18h2.015v-3.727h2.485c2.289 0 3.836-1.515 3.836-3.765v-.016c0-2.258-1.547-3.765-3.836-3.765h-4.5V18Zm4.008-9.625c1.445 0 2.289.773 2.289 2.125v.016c0 1.351-.844 2.132-2.29 2.132h-1.992V8.375h1.993ZM101.196 18h1.946V6.156h-1.946V18Zm6.415.14c1.125 0 2.031-.484 2.5-1.312h.132V18h1.922v-5.836c0-1.805-1.234-2.867-3.429-2.867-2.032 0-3.407.953-3.594 2.39l-.008.07h1.836l.008-.03c.195-.563.773-.883 1.664-.883 1.047 0 1.601.469 1.601 1.32v.734l-2.195.133c-2.078.125-3.242 1.016-3.242 2.54v.015c0 1.555 1.18 2.555 2.805 2.555Zm-.883-2.648v-.015c0-.704.508-1.102 1.594-1.172l1.921-.125v.687c0 1.016-.867 1.781-2.039 1.781-.859 0-1.476-.43-1.476-1.156ZM114.83 21c1.89 0 2.867-.68 3.601-2.82l3.063-8.72h-2.047l-1.984 6.673h-.149l-1.992-6.672h-2.125l3.055 8.547-.102.39c-.211.774-.687 1.102-1.484 1.102-.203 0-.422-.008-.578-.023v1.492c.234.023.507.031.742.031Z" fill="#fff"/></symbol><symbol fill="none" viewBox="0 0 140 28" id="logo"><path d="m135.198 5.522-4.777 5.32v-5.32h-3.456v13.434h3.456v-5.655l5.113 5.655H140l-6.289-7.038 5.834-6.396h-4.347ZM120.87 10.533h-4.779V5.522h-3.457v13.434h3.457V13.66h4.779v5.296h3.457V5.522h-3.457v5.011ZM20.526 12.797c-.083 2.505-.408 3.006-1.826 3.006v3.15h.529c3.533 0 4.383-1.813 4.513-5.845l.144-4.464H27.2v10.314h3.459V5.524h-9.892l-.24 7.273ZM39.248 9.603H36.75v-4.08h-3.458v13.433h6.002c3.768 0 5.113-2.433 5.113-4.723 0-2.959-1.873-4.63-5.16-4.63h.001Zm-.267 6.395h-2.23v-3.412h2.232c1.201 0 1.922.526 1.922 1.647 0 1.216-.698 1.765-1.922 1.765M55.667 5.212V.225H52.21v4.987c-3.959.327-6.624 3.127-6.624 7.012 0 3.884 2.666 6.705 6.626 7.04v5.059h3.458v-5.056c3.963-.31 6.628-3.126 6.628-7.04 0-3.913-2.665-6.703-6.628-7.015h-.002Zm-3.456 10.81c-1.922-.263-3.12-1.694-3.12-3.795 0-2.1 1.2-3.531 3.12-3.793v7.588Zm3.458 0V8.434c1.92.262 3.129 1.689 3.129 3.79 0 2.1-1.201 3.531-3.123 3.795M75.257 14.829v-4.515c0-3.293-2.113-5.37-5.664-5.37-3.674 0-5.619 2.195-5.786 4.485h3.505c.12-.5.648-1.36 2.28-1.36 1.346 0 2.209.621 2.209 2.245h-3.434c-3.074 0-4.896 1.598-4.896 4.27 0 2.796 1.995 4.706 4.873 4.706 2.114 0 3.282-.99 3.793-1.742.455.908 1.464 1.408 2.784 1.408h1.201v-3.104c-.624 0-.865-.286-.865-1.025v.002Zm-3.458-.885c0 1.551-1.105 2.434-2.544 2.434-1.25 0-2.233-.453-2.233-1.79s1.08-1.528 2.016-1.528h2.76v.884ZM86.205 7.432V3.638h8.954V.225H82.58v18.731h7.494c4.152 0 6.533-2.051 6.533-5.821 0-3.555-2.377-5.703-6.533-5.703h-3.87Zm3.7 8.136h-3.7v-4.872h3.697c1.921 0 3.001.882 3.001 2.433 0 1.598-1.08 2.433-3.001 2.433M109.827 14.829v-4.515c0-3.293-2.114-5.37-5.666-5.37-3.672 0-5.617 2.195-5.786 4.485h3.505c.121-.5.649-1.36 2.281-1.36 1.345 0 2.209.621 2.209 2.245h-3.433c-3.075 0-4.898 1.598-4.898 4.27 0 2.793 1.996 4.7 4.874 4.7 2.114 0 3.28-.99 3.793-1.741.456.907 1.465 1.407 2.785 1.407h1.199v-3.098c-.623 0-.863-.286-.863-1.025v.002Zm-3.459-.885c0 1.551-1.105 2.434-2.546 2.434-1.247 0-2.232-.453-2.232-1.79s1.081-1.528 2.017-1.528h2.761v.884ZM18.485 24.143H0v3.818h18.485v-3.817ZM12.603 2.796C12.075 1.234 11.467 0 9.386 0c-2.08 0-2.728 1.23-3.281 2.796l-5.72 16.16h3.792l1.32-3.84H12.8l1.228 3.84h4.035l-5.459-16.16Zm-6 9.074 2.591-7.668h.096l2.448 7.66-5.136.008Z" fill="#fff"/></symbol><symbol viewBox="0 0 40 40" fill="none" id="mute"><g opacity="0.8" clip-path="url(#mute_clip0_4162_59613)"><path d="M22.0987 5.49849C22.3595 5.31189 22.6648 5.19699 22.9839 5.16525C23.3031 5.13351 23.625 5.18605 23.9174 5.31762C24.2099 5.44919 24.4628 5.65519 24.6508 5.91504C24.8387 6.1749 24.9553 6.47952 24.9887 6.79849L24.9987 6.98849V33.0085C24.9988 33.3292 24.9148 33.6444 24.755 33.9225C24.5952 34.2005 24.3653 34.4319 24.0881 34.5933C23.811 34.7547 23.4963 34.8406 23.1756 34.8424C22.8549 34.8442 22.5393 34.7618 22.2604 34.6035L22.1004 34.5002L11.132 26.6652H6.66536C5.8244 26.6654 5.01442 26.3478 4.39778 25.776C3.78115 25.2042 3.40344 24.4204 3.34036 23.5818L3.33203 23.3318V16.6652C3.33219 15.8245 3.64998 15.0149 4.22176 14.3986C4.79354 13.7824 5.57706 13.4049 6.41536 13.3418L6.66536 13.3318H11.132L22.0987 5.49849ZM29.3087 15.2852L31.6654 17.6418L34.022 15.2852C34.1758 15.126 34.3597 14.999 34.563 14.9117C34.7664 14.8243 34.9851 14.7783 35.2064 14.7764C35.4277 14.7745 35.6471 14.8167 35.852 14.9005C36.0568 14.9843 36.2429 15.108 36.3994 15.2645C36.5558 15.421 36.6796 15.6071 36.7634 15.8119C36.8472 16.0167 36.8894 16.2362 36.8874 16.4575C36.8855 16.6788 36.8395 16.8975 36.7522 17.1008C36.6648 17.3042 36.5379 17.4881 36.3787 17.6418L34.022 19.9985L36.3787 22.3552C36.6914 22.6677 36.8672 23.0916 36.8674 23.5337C36.8675 23.9759 36.692 24.3999 36.3795 24.7127C36.067 25.0254 35.6431 25.2012 35.201 25.2013C34.7588 25.2015 34.3348 25.026 34.022 24.7135L31.6654 22.3535L29.3087 24.7118C28.996 25.0243 28.5719 25.1998 28.1298 25.1997C27.6877 25.1995 27.2637 25.0237 26.9512 24.711C26.6387 24.3983 26.4632 23.9742 26.4634 23.5321C26.4635 23.09 26.6393 22.666 26.952 22.3535L29.3087 19.9985L26.952 17.6418C26.7928 17.4881 26.6659 17.3042 26.5785 17.1008C26.4912 16.8975 26.4452 16.6788 26.4433 16.4575C26.4414 16.2362 26.4835 16.0167 26.5673 15.8119C26.6511 15.6071 26.7749 15.421 26.9314 15.2645C27.0879 15.108 27.2739 14.9843 27.4788 14.9005C27.6836 14.8167 27.9031 14.7745 28.1244 14.7764C28.3457 14.7783 28.5644 14.8243 28.7677 14.9117C28.971 14.999 29.155 15.126 29.3087 15.2852Z" fill="#F5F5F7"/></g><defs/></symbol><clipPath id="mute_clip0_4162_59613"><rect width="40" height="40" fill="white"/></clipPath><symbol viewBox="0 0 132 40" fill="none" id="pause"><g opacity="0.8"><path d="M0 25.9658V8.92578H15.552V25.9658H12.336V11.8058H3.216V25.9658H0Z" fill="white"/><path d="M28.594 25.9658V24.0458C28.482 24.2218 28.362 24.4058 28.234 24.5978C27.354 25.6858 26.106 26.2298 24.49 26.2298C22.73 26.2298 21.338 25.6138 20.314 24.3818C19.29 23.1498 18.778 21.6538 18.778 19.8938C18.778 18.1018 19.298 16.5978 20.338 15.3818C21.394 14.1658 22.786 13.5578 24.514 13.5578C25.57 13.5578 26.538 13.8378 27.418 14.3978C27.898 14.7498 28.282 15.1658 28.57 15.6458V13.8218H31.642V25.9658H28.594ZM28.618 19.8938C28.618 18.8538 28.314 17.9898 27.706 17.3018C27.114 16.5978 26.314 16.2458 25.306 16.2458C24.266 16.2458 23.434 16.5978 22.81 17.3018C22.202 17.9898 21.898 18.8538 21.898 19.8938C21.898 20.9978 22.21 21.8618 22.834 22.4858C23.138 22.8378 23.498 23.0938 23.914 23.2538C24.33 23.4458 24.794 23.5418 25.306 23.5418C26.314 23.5418 27.114 23.1898 27.706 22.4858C28.314 21.7658 28.618 20.9018 28.618 19.8938Z" fill="white"/><path d="M47.3293 13.8218L39.8413 31.0778H36.7692L39.0732 25.7498L33.6012 13.8218H37.0573L40.6333 22.0778L44.2093 13.8218H47.3293Z" fill="white"/><path d="M54.6564 23.8058C56.5444 23.8058 57.4884 23.2938 57.4884 22.2698C57.4884 21.3898 56.7524 20.9498 55.2804 20.9498H53.3124V18.7178H55.1844C56.5604 18.7178 57.2484 18.2618 57.2484 17.3498C57.2484 16.8858 57.0164 16.5338 56.5524 16.2938C56.0564 16.0698 55.4164 15.9578 54.6324 15.9578C53.0804 15.9578 52.0564 16.4938 51.5604 17.5658H48.6324C48.7764 16.6378 49.1684 15.8618 49.8084 15.2378C50.4644 14.5978 51.2004 14.1498 52.0164 13.8938C52.8484 13.6378 53.7364 13.5098 54.6804 13.5098C55.3364 13.5098 55.9604 13.5658 56.5524 13.6778C57.1604 13.7738 57.7524 13.9418 58.3284 14.1818C58.9204 14.4218 59.3924 14.7978 59.7444 15.3098C60.0964 15.8058 60.2724 16.4058 60.2724 17.1098C60.2724 17.7338 60.0964 18.2858 59.7444 18.7658C59.3924 19.2458 58.9124 19.5658 58.3044 19.7258C58.9924 19.9018 59.5444 20.2138 59.9604 20.6618C60.3764 21.1098 60.5844 21.6778 60.5844 22.3658C60.5844 23.1018 60.3924 23.7418 60.0084 24.2858C59.6404 24.8298 59.1444 25.2378 58.5204 25.5098C57.9124 25.7818 57.2884 25.9738 56.6484 26.0858C56.0084 26.2138 55.3444 26.2778 54.6564 26.2778C53.4404 26.2778 52.3044 26.0618 51.2484 25.6298C50.2084 25.1818 49.4164 24.4858 48.8724 23.5418C48.5844 23.0458 48.4164 22.5418 48.3684 22.0298H51.3684C51.5924 22.6058 52.0164 23.0458 52.6404 23.3498C53.2804 23.6538 53.9524 23.8058 54.6564 23.8058Z" fill="white"/><path d="M72.6106 25.9658V24.0458C72.4986 24.2218 72.3786 24.4058 72.2506 24.5978C71.3706 25.6858 70.1226 26.2298 68.5066 26.2298C66.7466 26.2298 65.3546 25.6138 64.3306 24.3818C63.3066 23.1498 62.7946 21.6538 62.7946 19.8938C62.7946 18.1018 63.3146 16.5978 64.3546 15.3818C65.4106 14.1658 66.8026 13.5578 68.5306 13.5578C69.5866 13.5578 70.5546 13.8378 71.4346 14.3978C71.9146 14.7498 72.2986 15.1658 72.5866 15.6458V13.8218H75.6586V25.9658H72.6106ZM72.6346 19.8938C72.6346 18.8538 72.3306 17.9898 71.7226 17.3018C71.1306 16.5978 70.3306 16.2458 69.3226 16.2458C68.2826 16.2458 67.4506 16.5978 66.8266 17.3018C66.2186 17.9898 65.9146 18.8538 65.9146 19.8938C65.9146 20.9978 66.2266 21.8618 66.8506 22.4858C67.1546 22.8378 67.5146 23.0938 67.9306 23.2538C68.3466 23.4458 68.8106 23.5418 69.3226 23.5418C70.3306 23.5418 71.1306 23.1898 71.7226 22.4858C72.3306 21.7658 72.6346 20.9018 72.6346 19.8938Z" fill="white"/><path d="M105.333 31.3333C107.167 31.3333 108.667 29.8333 108.667 28V11.3333C108.667 9.5 107.167 8 105.333 8C103.5 8 102 9.5 102 11.3333V28C102 29.8333 103.5 31.3333 105.333 31.3333ZM115.333 11.3333V28C115.333 29.8333 116.833 31.3333 118.667 31.3333C120.5 31.3333 122 29.8333 122 28V11.3333C122 9.5 120.5 8 118.667 8C116.833 8 115.333 9.5 115.333 11.3333Z" fill="#F5F5F7"/></g></symbol><symbol viewBox="0 0 132 40" fill="none" id="play"><g opacity="0.8"><path d="M16 26.04V9H31.552V26.04H28.336V11.88H19.216V26.04H16Z" fill="white"/><path d="M47.618 13.896L40.13 31.152H37.058L39.362 25.824L33.89 13.896H37.346L40.922 22.152L44.498 13.896H47.618Z" fill="white"/><path d="M60.9 17.904H57.852C57.564 17.472 57.308 17.16 57.084 16.968C56.812 16.776 56.524 16.616 56.22 16.488C55.836 16.36 55.42 16.296 54.972 16.296C53.996 16.296 53.22 16.664 52.644 17.4C52.084 18.12 51.804 18.976 51.804 19.968C51.804 21.056 52.1 21.92 52.692 22.56C53.268 23.28 54.036 23.64 54.996 23.64C55.476 23.64 55.9 23.568 56.268 23.424C56.908 23.216 57.372 22.88 57.66 22.416C57.708 22.352 57.764 22.272 57.828 22.176L57.9 22.032H60.9C60.836 22.832 60.492 23.584 59.868 24.288C59.244 24.992 58.524 25.512 57.708 25.848C56.956 26.184 56.036 26.352 54.948 26.352C53.14 26.352 51.644 25.736 50.46 24.504C49.276 23.272 48.684 21.76 48.684 19.968C48.684 18.128 49.268 16.608 50.436 15.408C51.62 14.192 53.116 13.584 54.924 13.584C56.108 13.584 57.22 13.848 58.26 14.376C59.3 14.888 60.044 15.648 60.492 16.656C60.716 17.184 60.852 17.6 60.9 17.904Z" fill="white"/><path d="M63.5461 26.04V13.896H66.5701V19.008L72.1861 13.896H76.1941L69.7381 19.704L76.5061 26.04H72.4261L66.5701 20.592V26.04H63.5461Z" fill="white"/><path d="M105.862 30.6803C105.236 31.0823 104.603 31.1052 103.961 30.7489C103.32 30.3939 103 29.8452 103 29.103V9.89752C103 9.15528 103.32 8.60602 103.961 8.24975C104.603 7.89471 105.236 7.91821 105.862 8.32026L121.156 17.923C121.719 18.2941 122 18.8199 122 19.5003C122 20.1806 121.719 20.7064 121.156 21.0775L105.862 30.6803Z" fill="#F5F5F7"/></g></symbol><symbol viewBox="0 0 40 40" fill="none" id="unmute"><g opacity="0.8" clip-path="url(#unmute_clip0_4162_59627)"><path d="M22.0987 5.34224C22.3595 5.15564 22.6648 5.04074 22.9839 5.009C23.3031 4.97726 23.625 5.0298 23.9174 5.16137C24.2099 5.29294 24.4628 5.49894 24.6508 5.75879C24.8387 6.01865 24.9553 6.32327 24.9887 6.64224L24.9987 6.83224V32.8522C24.9988 33.173 24.9148 33.4881 24.755 33.7662C24.5952 34.0443 24.3653 34.2756 24.0881 34.437C23.811 34.5985 23.4963 34.6844 23.1756 34.6862C22.8549 34.6879 22.5393 34.6056 22.2604 34.4472L22.1004 34.3439L11.132 26.5089H6.66536C5.8244 26.5092 5.01442 26.1916 4.39778 25.6197C3.78115 25.0479 3.40344 24.2642 3.34036 23.4256L3.33203 23.1756V16.5089C3.33219 15.6682 3.64998 14.8587 4.22176 14.2424C4.79354 13.6261 5.57706 13.2486 6.41536 13.1856L6.66536 13.1756H11.132L22.0987 5.34224Z" fill="#F5F5F7"/><path d="M29 15C32.7597 16.1538 33.2333 23.8462 29 25" stroke="#F5F5F7" stroke-width="3.5" stroke-linecap="round"/></g><defs/></symbol><clipPath id="unmute_clip0_4162_59627"><rect width="40" height="40" fill="white"/></clipPath></defs></svg>